<?xml version="1.0" standalone="no"?>
<!DOCTYPE svg PUBLIC "-//W3C//DTD SVG 20010904//EN"
 "http://www.w3.org/TR/2001/REC-SVG-20010904/DTD/svg10.dtd">
<svg version="1.0" xmlns="http://www.w3.org/2000/svg"
 width="1080.000000pt" height="1080.000000pt" viewBox="0 0 1080.000000 1080.000000"
 preserveAspectRatio="xMidYMid meet">
<metadata>
Created by potrace 1.14, written by Peter Selinger 2001-2017
</metadata>
<g transform="translate(0.000000,1080.000000) scale(0.100000,-0.100000)"
fill="#000000" stroke="none">
<path d="M0 5400 l0 -5400 5400 0 5400 0 0 5400 0 5400 -5400 0 -5400 0 0
-5400z m1112 4779 c59 -14 154 -73 196 -125 18 -21 45 -64 60 -94 l27 -55 5
-2820 5 -2820 708 2830 c486 1943 716 2847 734 2883 53 104 171 189 298 213
162 30 344 -68 414 -224 19 -41 330 -1269 932 -3679 497 -1990 906 -3618 909
-3618 3 0 412 1628 909 3618 602 2410 913 3638 932 3679 70 155 249 253 411
224 128 -22 248 -108 301 -213 18 -37 367 -1415 1132 -4477 608 -2433 1108
-4442 1111 -4465 3 -23 1 -67 -5 -98 -30 -165 -160 -298 -320 -328 -75 -14
-8867 -14 -8942 0 -158 30 -289 161 -319 319 -14 75 -14 8842 0 8930 20 121
99 231 209 290 92 49 171 57 293 30z"/>
<path d="M3198 8125 c-10 -19 -581 -2316 -576 -2320 3 -3 266 -4 585 -3 l579
3 -291 1165 c-160 640 -294 1160 -297 1155z"/>
<path d="M7304 6965 l-291 -1165 583 0 c384 0 584 3 584 10 0 18 -573 2305
-579 2312 -3 4 -137 -517 -297 -1157z"/>
<path d="M1967 3208 c-246 -986 -447 -1796 -447 -1800 0 -5 756 -8 1680 -8
1488 0 1680 2 1680 15 0 8 -201 818 -446 1800 l-446 1785 -787 0 -786 0 -448
-1792z"/>
<path d="M6366 3215 c-245 -982 -446 -1792 -446 -1800 0 -13 192 -15 1680 -15
924 0 1680 3 1680 8 0 4 -201 814 -447 1800 l-448 1792 -786 0 -787 0 -446
-1785z"/>
</g>
</svg>
